<?xml-stylesheet type="text/css" href="../../css/min.css"?><svg xmlns="http://www.w3.org/2000/svg" viewBox="0 0 64 64"><title>Bēhance</title><path class="behance" d="M24.3 28.2c.7-.5 1.1-1.4 1.1-2.6 0-.7-.1-1.2-.3-1.6-.2-.4-.6-.8-1-1-.4-.2-.8-.4-1.4-.5-.5-.1-1.1-.1-1.6-.1h-5.8V29h6.3c1 0 2-.2 2.7-.8zM22 33.3h-6.8v7.8h6.6c.6 0 1.2-.1 1.7-.2.6-.1 1.1-.3 1.5-.6s.8-.7 1-1.1c.3-.5.4-1.1.4-1.8 0-1.5-.4-2.5-1.2-3.1-.8-.7-1.9-1-3.2-1z"/><path class="behance" d="M0 0v64h64V0H0zm39 19.5h11.5v2.8H39v-2.8zm-7.1 21.9c-.6 1.1-1.3 1.9-2.2 2.6-.9.7-2 1.2-3.2 1.5s-2.4.5-3.7.5H9V17.6h13.3c1.4 0 2.6.1 3.7.4 1.1.2 2.1.6 2.9 1.2.8.5 1.4 1.3 1.8 2.2.4.9.6 2 .6 3.3 0 1.4-.3 2.6-1 3.6s-1.6 1.7-2.9 2.3c1.7.5 3 1.4 3.9 2.6.9 1.3 1.3 2.8 1.3 4.5.1 1.4-.2 2.6-.7 3.7zM55 37H40.2c0 1.6.5 3.2 1.4 4 .8.8 2.1 1.2 3.6 1.2 1.1 0 2.1-.3 2.9-.9.8-.6 1.3-1.2 1.5-1.8h5c-.8 2.5-2 4.2-3.7 5.3-1.6 1.1-3.6 1.6-5.9 1.6-1.6 0-3.1-.3-4.4-.8-1.3-.5-2.4-1.3-3.3-2.2-.9-1-1.6-2.1-2.1-3.4s-.7-2.8-.7-4.4c0-1.5.3-3 .8-4.3s1.2-2.5 2.1-3.4c.9-1 2-1.7 3.3-2.3 1.3-.6 2.7-.8 4.3-.8 1.7 0 3.3.3 4.6 1 1.3.7 2.4 1.6 3.2 2.7s1.4 2.4 1.8 3.9c.3 1.5.5 3 .4 4.6z"/><path class="behance" d="M44.9 29.1c-.9 0-1.6.2-2.2.5-.6.3-1.1.7-1.4 1.1-.4.5-.6.9-.8 1.4-.1.5-.2.9-.3 1.4h9.2c-.2-1.5-.7-2.5-1.4-3.3-.6-.7-1.8-1.1-3.1-1.1z"/><a xmlns:xlink="http://www.w3.org/1999/xlink" xlink:href="https://behance.net/danielbayley" xlink:show="new" target="_top"><rect x="0" y="0" width="100%" height="100%" fill-opacity="0"/></a></svg>
