<?xml-stylesheet type="text/css" href="../../css/min.css"?><svg xmlns="http://www.w3.org/2000/svg" viewBox="0 0 64 64"><title>GitHub</title><path class="github" d="M0 0v64h24.1v-7.9c-1.1.2-2 .3-2.9.4h-1.1c-.2 0-.4 0-.7-.1h-.3c-4.8-.7-5.9-4.5-5.9-4.5-1.5-3.7-3.5-4.7-3.5-4.7-2.9-1.9.2-1.9.2-1.9 2.1.3 3.9 1.5 4.9 3.3 1.4 2.3 3.2 3.2 4.8 3.4 1.8.2 3.5-.4 4.5-.8.1-1.6.9-3.1 2-4.3-7.1-.8-14.6-3.5-14.6-15.8 0-3.2 1.1-6.3 3.3-8.6-1-2.8-.9-5.8.3-8.5 0 0 2.7-.9 8.8 3.3 5.2-1.4 10.8-1.4 16 0 6.1-4.1 8.8-3.3 8.8-3.3 1.2 2.7 1.3 5.7.4 8.4 2.2 2.3 3.3 5.4 3.3 8.6 0 12.3-7.5 15-14.7 15.8 1.5 1.6 2.3 3.7 2.2 5.9V64H64V0H0z"/><a xmlns:xlink="http://www.w3.org/1999/xlink" xlink:href="https://github.com/danielbayley" xlink:show="new" target="_top"><rect x="0" y="0" width="100%" height="100%" fill-opacity="0"/></a></svg>
