<?xml-stylesheet type="text/css" href="../../css/min.css"?><svg xmlns="http://www.w3.org/2000/svg" viewBox="0 0 64 64"><title>Pinterest</title><path class="pinterest" d="M0 0v64h64V0H0zm32 56c-2.4 0-4.6-.3-6.8-1 .9-1.4 1.9-3.3 2.4-5.1.3-1.1 1.7-6.6 1.7-6.6.8 1.6 3.3 3 5.9 3 7.7 0 12.9-7 12.9-16.4 0-7.1-6-13.7-15.2-13.7-11.4 0-17.2 8.2-17.2 15 0 4.1 1.6 7.8 4.9 9.2.5.2 1 0 1.2-.6.1-.4.4-1.5.5-1.9.2-.6.1-.8-.3-1.3-1-1.1-1.6-2.6-1.6-4.7 0-6.1 4.5-11.5 11.8-11.5 6.4 0 10 3.9 10 9.2 0 6.9-3.1 12.8-7.6 12.8-2.5 0-4.4-2.1-3.8-4.6.7-3 2.1-6.3 2.1-8.5 0-2-1.1-3.6-3.2-3.6-2.6 0-4.6 2.7-4.6 6.2 0 2.3.8 3.8.8 3.8s-2.6 11.1-3.1 13.1c-.4 1.8-.5 3.8-.4 5.5C13.9 50.3 8 41.8 8 32 8 18.7 18.7 8 32 8s24 10.7 24 24-10.7 24-24 24z"/><a xmlns:xlink="http://www.w3.org/1999/xlink" xlink:href="https://pinterest.com/danielbayley" xlink:show="new" target="_top"><rect x="0" y="0" width="100%" height="100%" fill-opacity="0"/></a></svg>
