<?xml-stylesheet type="text/css" href="../../css/min.css"?><svg xmlns="http://www.w3.org/2000/svg" viewBox="0 0 64 64"><title>Twitter</title><path class="twitter" d="M0,0v64h64V0H0z M49,23.3v1.1c0,11.6-8.8,24.9-24.9,24.9c-4.9,0-9.5-1.4-13.4-3.9c0.7,0.1,1.4,0.1,2.1,0.1 c4.1,0,7.9-1.4,10.9-3.7c-3.8-0.1-7.1-2.6-8.2-6.1c0.5,0.1,1.1,0.2,1.6,0.2c0.8,0,1.6-0.1,2.3-0.3c-4-0.8-7-4.3-7-8.6v-0.1 c1.2,0.7,2.5,1,4,1.1c-2.3-1.6-3.9-4.2-3.9-7.3c0-1.6,0.4-3.1,1.2-4.4c4.3,5.3,10.8,8.8,18,9.1c-0.1-0.6-0.2-1.3-0.2-2 c0-4.8,3.9-8.8,8.8-8.8c2.5,0,4.8,1.1,6.4,2.8c2-0.4,3.9-1.1,5.6-2.1c-0.7,2-2,3.8-3.8,4.8c1.8-0.2,3.5-0.7,5-1.4 C52.2,20.5,50.7,22.1,49,23.3z"/><a xmlns:xlink="http://www.w3.org/1999/xlink" xlink:href="https://twitter.com/danielbayley" xlink:show="new" target="_top"><rect x="0" y="0" width="100%" height="100%" fill-opacity="0"/></a></svg>
