<?xml-stylesheet type="text/css" href="../../css/min.css"?><svg xmlns="http://www.w3.org/2000/svg" viewBox="0 0 64 64"><title>Vimeo</title><path class="vimeo" d="M0,0v64h64V0H0z M54.2,21.3c-0.2,4.5-3.3,10.7-9.4,18.5C38.5,47.9,33.2,52,28.8,52c-2.7,0-5-2.5-6.8-7.5 c-1.2-4.6-2.5-9.1-3.7-13.7c-1.4-5-2.9-7.5-4.5-7.5c-0.3,0-1.6,0.7-3.6,2.2L8,22.8c2.3-2,4.5-4,6.7-6c3-2.6,5.3-4,6.8-4.2 c3.6-0.3,5.8,2.1,6.6,7.4c0.9,5.7,1.5,9.2,1.9,10.6c1,4.7,2.2,7.1,3.4,7.1c1,0,2.4-1.5,4.4-4.6c1.9-3.1,3-5.4,3.1-7 c0.3-2.6-0.8-4-3.1-4c-1.1,0-2.2,0.3-3.4,0.8c2.3-7.4,6.6-11.1,13-10.8C52.2,12.1,54.5,15.2,54.2,21.3z"/><a xmlns:xlink="http://www.w3.org/1999/xlink" xlink:href="https://vimeo.com/danielbayley" xlink:show="new" target="_top"><rect x="0" y="0" width="100%" height="100%" fill-opacity="0"/></a></svg>
